<svg xmlns="http://www.w3.org/2000/svg" data-name="Layer 1" viewBox="0 0 100 125" fill="#fe0606"><path d="M91.48 38.82a8.11 8.11 0 0 1-1.55 4.79 11 11 0 0 1-4 3.44 4.79 4.79 0 0 0-1.8 1.89 5.41 5.41 0 0 0-.43 1.77 1.08 1.08 0 0 1-1.09 1h-4.8a1.09 1.09 0 0 1-1.09-1.17 6.54 6.54 0 0 1 1-3.18A15.42 15.42 0 0 1 81.44 44a6.76 6.76 0 0 0 2.2-2.17 5.54 5.54 0 0 0 .8-3A4 4 0 0 0 83.5 36a3.41 3.41 0 0 0-2.67-1 3.34 3.34 0 0 0-2.33.85 2.86 2.86 0 0 0-.82 1.39 1.6 1.6 0 0 1-1.59 1.13l-4.48-.08a1 1 0 0 1-1-1 7.21 7.21 0 0 1 2.73-5.49 11.87 11.87 0 0 1 7.45-2.18q5 0 7.81 2.5a8.54 8.54 0 0 1 2.88 6.7zm-9.33 21.54a1.54 1.54 0 0 0 1.54-1.54v-2.56a1.53 1.53 0 0 0-1.54-1.53h-3.93a1.53 1.53 0 0 0-1.54 1.53v2.56a1.53 1.53 0 0 0 1.54 1.54zm-47.4 2.17L37 47.91l-1.55-2.49 2.28-2.9-6-3.85v-2.42a9.23 9.23 0 0 1-1.15-3.14c-.44 0-1-.65-1.64-2.85-.85-3 .05-3.46.82-3.38a7.9 7.9 0 0 1-.33-1.24 8.82 8.82 0 0 1 0-4 8.63 8.63 0 0 1 2.31-4.06 11.14 11.14 0 0 1 2.14-1.77A8.34 8.34 0 0 1 36 14.78a6.9 6.9 0 0 1 1.89-.36 7.79 7.79 0 0 1 4.75 1 5.9 5.9 0 0 1 2.31 2.15s3.84.27 2.54 8.07a7.9 7.9 0 0 1-.33 1.24c.77-.07 1.67.37.82 3.38-.62 2.2-1.2 2.82-1.64 2.85a9 9 0 0 1-1.15 3.1v2.45l-6 3.85 2.28 2.9-1.55 2.49 2.28 14.62 4.59-22A64.67 64.67 0 0 1 55.32 46a19.1 19.1 0 0 1 2.19 2 18.65 18.65 0 0 1 3 4.22l7 13.41 19.59 1.58a2.65 2.65 0 0 1 0 5.29l-21.6 1.61A5.41 5.41 0 0 1 60.87 72l-6.75-9-1 22.6H17.91L9.24 72.55A4.6 4.6 0 0 1 9 68.11l3.75-8 3.42-7.29a18.91 18.91 0 0 1 5.63-7 64.79 64.79 0 0 1 8.42-5.38zm-10.2 19.14L23.48 62l-5.11 7.62a1.55 1.55 0 0 0 0 1.62z"/></svg>