<svg version="1.1" id="Capa_1" xmlns="http://www.w3.org/2000/svg" x="0" y="0" viewBox="0 0 853 838" xml:space="preserve"><style>.st1{fill-opacity:.5}.st1,.st2{fill:#fff}</style><path fill="#cfeff3" d="M0 .2h853.3V838H0z"/><g id="Page-State-3_2_"><g id="page-State-3_2_" transform="translate(-1 -1908)"><g id="CRM-Free_2_" transform="translate(1 1867)"><g transform="rotate(60 349.345 210.664)" id="Circles-Copy_2_"><path id="Fill-1_2_" class="st1" d="M98.3 368.6c-105 58.2-140.6 186.5-79.5 286.5 61.1 100 195.8 133.9 300.8 75.7s140.6-186.5 79.5-286.5-195.7-133.9-300.8-75.7M186 511.9c21.8-12.1 50-5 62.7 15.8 12.7 20.8 5.3 47.6-16.6 59.7-21.8 12.1-50 5-62.7-15.8-12.7-20.8-5.3-47.5 16.6-59.7"/><path id="Fill-4_2_" class="st1" d="M565.9 353.6c-63 34.9-84.4 111.9-47.7 171.9s117.5 80.3 180.5 45.4S783 459 746.4 399c-36.7-60-117.5-80.3-180.5-45.4m11 18.1c52.4-29.1 119.9-12.1 150.4 37.8s12.7 114.2-39.7 143.2c-52.4 29.1-119.9 12.1-150.4-37.8-30.5-49.8-12.7-114.1 39.7-143.2"/><path id="Fill-6_2_" class="st1" d="M588.5 389.3c-43.4 24-58 77-32.8 118.2 25.2 41.3 80.8 55.3 124.2 31.2 43.4-24 58-77 32.8-118.2-25.3-41.2-80.9-55.2-124.2-31.2m11 18.1c32.8-18.2 75-7.6 94.1 23.7 19.1 31.2 7.9 71.4-24.9 89.6-32.8 18.2-75 7.6-94.1-23.7-19-31.2-7.9-71.4 24.9-89.6"/><path id="Fill-9_2_" class="st1" d="M827.4 60.3c24.2 39.6 10.1 90.3-31.4 113.4-41.6 23-94.9 9.6-119.1-29.9-24.2-39.6-10.1-90.3 31.5-113.4 41.5-23 94.8-9.6 119 29.9"/><path id="Fill-12_2_" class="st1" d="M1147.9 122c12.2 20 5.1 45.6-15.9 57.3-21 11.6-47.9 4.9-60.2-15.1-12.2-20-5.1-45.6 15.9-57.3 21-11.7 48-4.9 60.2 15.1"/></g></g></g></g><path class="st2" d="M197.4 215.7C191.7 94.4 90.5 2.6-19.4.2-137-2.4-226.5 87.6-226.5 216.1s103.8 211.7 211.4 218.5c133.8 8.5 218-103.9 212.5-218.9zm-211.9 31.9c-14.8-.9-29.1-12.4-29.1-30.1 0-17.7 12.3-30.1 28.6-29.8 15.1.3 29.1 13 29.9 29.7.7 15.8-10.9 31.3-29.4 30.2zM359 542c-2.4-50.1-44.2-88-89.5-88.9-48.5-1.1-85.5 36-85.5 89 0 53.1 42.8 87.4 87.2 90.2 55.3 3.6 90.1-42.8 87.8-90.3zm-87.6 68.6c-33.6-2.1-66.1-28.1-66.1-68.3 0-40.1 28-68.3 64.7-67.5 34.3.7 66 29.4 67.8 67.4 1.7 35.9-24.6 71.1-66.4 68.4zM728.7 463.4c-2.3-48-42.4-84.3-85.9-85.3-46.6-1-82 34.6-82 85.4 0 50.9 41.1 83.8 83.7 86.5 53 3.4 86.4-41.1 84.2-86.6zM830.5 794.1c-1.2-24.3-21.4-42.6-43.4-43.1-23.5-.5-41.4 17.5-41.4 43.2 0 25.7 20.8 42.3 42.3 43.7 26.8 1.7 43.6-20.8 42.5-43.8z"/><path class="st2" d="M399.4 539.4c-3.5-72.9-64.5-128-130.8-129.5-48.8-1.1-88.4 25.2-109.2 66.1-19.7 38.8-19.1 85.1 1.6 123.4 22.7 42 64.4 69.5 110.1 71.5 77.9 3.4 131.6-62.4 128.3-131.5zM271.3 649.2c-38.1-1.6-72.8-24.6-91.7-59.6-17.2-31.9-17.8-70.5-1.4-102.8 17.3-34.1 50.3-55.9 90.9-55.1 55.2 1.2 106.1 47.1 109 107.8 2.8 57.7-41.9 112.5-106.8 109.7z"/></svg>