<svg xmlns="http://www.w3.org/2000/svg" viewBox="0 0 100 125"><path d="M53.625 21.728c-1.63 2.504-2.29 5.548-2.5 8.389-1.143.74-1.117 2.044-1.125 3.18.091 1.41.506 2.513 1.063 3.68.161.362.45.513.687.749a23.046 23.046 0 0 0 2.938 6.673c2.367 3.632 5.905 6.468 10.312 6.518 4.397.05 7.946-2.761 10.313-6.393 1.354-2.079 2.346-4.453 2.968-6.83.304-.15.471-.482.656-.716.644-1.137.917-2.469 1.063-3.68.07-1.417-.174-2.245-1.031-3.15-.192-2.862-.853-5.917-2.469-8.42-2.035-3.152-5.746-5.249-11.313-4.615-.09-.012-.16.01-.25 0-4.264-.612-9.121 1.358-11.312 4.615zM27 17.082c-9.93 0-18 8.054-18 17.962 0 9.909 8.07 17.962 18 17.962 2.328 0 5.903-.929 8.031-1.902 3.106.832 8.782 1.965 8.782 1.965.684.125 1.353-.654 1.124-1.31l-2.812-8.451C44.112 41.003 45 37.644 45 35.044c0-9.908-8.07-17.962-18-17.962zm0 1.996c8.848 0 16 7.136 16 15.966 0 2.258-1.018 5.663-2.719 7.36-.245.26-.332.659-.218.998L42.5 50.73c-1.604-.32-4.94-.957-7.219-1.59a1.015 1.015 0 0 0-.718.062C33.035 49.963 28.8 51.01 27 51.01c-8.848 0-16-7.136-16-15.966 0-8.83 7.152-15.966 16-15.966zm0 5.488c-3.582.046-5.958 2.76-6 5.988-.007.527.472 1.012 1 1.012s1.007-.485 1-1.012c.115-2.459 1.893-3.965 4-3.992 2.464.115 3.974 1.889 4 3.992-.358 2.56-2.3 4.036-4.438 5.114a1.02 1.02 0 0 0-.562.873v2.994c-.007.527.472 1.012 1 1.012s1.007-.485 1-1.012V37.07c2.597-1.358 4.95-3.807 5-6.517.093-3.692-2.761-5.944-6-5.988zm48.094 3.244c1.832 1.143 1.975 3.025 1.937 4.646-.139 3.79-1.397 7.842-3.406 10.977-2.133 3.273-5.06 5.528-8.594 5.488-3.564-.04-6.522-2.34-8.656-5.613-2.07-3.176-3.274-7.232-3.344-10.603 1.176-1.151 2.45-2.257 3.75-3.056 1.23-.756 2.432-1.122 3.594-1.185-.34 1.618-1.324 3.132-1.781 4.46-.229.655.44 1.435 1.125 1.31 4.877-.88 9.204-2.607 12.687-5.863.933-.765 1.779-.994 2.688-.561zM27 42.03a.999.999 0 1 0-.002 1.997A.999.999 0 0 0 27 42.03zm31.625 9.043c-4.984 1.99-9.758 3.74-13.406 6.08C41.57 59.494 39 62.612 39 66.978c.082 3.323.026 6.653 0 9.979-.013 1.722.62 3.329 2 4.397s3.367 1.59 6 1.59c8.156.104 27.604.041 36 0 2.601 0 4.536-.193 5.969-1.154C90.4 80.83 91 79.112 91 76.956v-10.01c-.146-4.786-2.425-7.935-5.813-10.166-3.387-2.231-7.842-3.723-12.812-5.707-1.089-.165-2.12.517-2.813 1.091-1.716 1.603-3.09 3.145-4.53 4.616-1.355-1.66-2.456-3.33-3.688-4.553-.893-.92-1.761-1.383-2.719-1.154zm.469 1.996c1.528.937 2.756 2.909 3.781 4.272-1.048.36-1.622 1.008-2.156 1.84l-3.25 1.497-2.907-5.8c1.471-.594 2.97-1.187 4.532-1.81zm12.812 0c1.284.51 2.53 1.002 3.719 1.465l-3.094 6.144-3.312-1.684c-.408-.847-1.22-1.252-1.938-1.622 1.476-1.53 2.963-3.362 4.625-4.303zm5.594 2.214c2.55 1.025 4.825 2.016 6.594 3.18 3.035 1.999 4.769 4.314 4.906 8.514v9.979c0 1.835-.356 2.644-1.156 3.18-.8.537-2.374.811-4.844.811h-2v-7.983c.015-.604-.628-1.13-1.219-.998-.447.1-.792.541-.781.998v7.983c-2.392.01-5.173.024-8.188.031l-3.25-15.935 1.657-1.091c.284-.178.467-.507.469-.842v-1.653l2.874 1.435c.474.232 1.118.01 1.344-.468zm-24.813.374l3.407 6.767c.226.46.845.68 1.312.468l2.907-1.341v1.559c0 .335.184.664.468.842l1.625 1.091-3.218 15.967c-3.084 0-5.736-.016-8.188-.031v-8.015c.015-.603-.628-1.13-1.219-.997-.447.1-.792.54-.781.997v7.984c-.592.055-1.351.01-2 0-2.367 0-3.905-.476-4.781-1.154-.877-.679-1.228-1.567-1.219-2.838-.03-3.342.038-6.936 0-10.01.012-3.599 1.94-5.964 5.281-8.108 2.18-1.298 4.459-2.358 6.407-3.18zM65 58.994c.839-.056 1.593.282 2.25.623.316.31.437.724.437 1.248v1.715l-1.78 1.185a1.022 1.022 0 0 0-.407 1.029l3.281 16.216c-2.726.01-4.866 0-7.594 0L64.5 64.794a1.022 1.022 0 0 0-.406-1.03l-1.782-1.184v-1.684c0-.525.138-.93.47-1.247.907-.466 1.443-.63 2.218-.655z" style="text-indent:0;text-transform:none;block-progression:tb" overflow="visible" color="#000"/></svg>