<svg xmlns="http://www.w3.org/2000/svg" viewBox="0 0 100 125"><path d="M49.575 19.474a4.946 4.946 0 0 0-4.033 7.755c1.557 2.264 4.635 2.85 6.899 1.293 2.25-1.547 2.817-4.64 1.26-6.904a4.948 4.948 0 0 0-4.126-2.144zm-16.886.595c-.525 0-1.052.017-1.58.057-4.216.317-8.615 1.957-11.69 5.04-1.894 1.833.921 4.643 2.751 2.745 2.217-2.223 5.849-3.654 9.232-3.909 2.663-.2 5.03.357 6.496 1.36-10.236 4.88-11.67 7.083-14.46 9.697a2.777 2.777 0 0 0-1.122 2.207l-.231 11.289-9.024 8.372c-2.771 2.515 1.061 6.646 3.777 4.07l9.887-9.172a2.777 2.777 0 0 0 .887-1.979l.157-7.635 2.61.64 6.105 7.181-3.437 9.214c-1.355 3.496 3.937 5.47 5.202 1.94l4.006-10.74a2.777 2.777 0 0 0-.486-2.768l-6.57-7.73c1.796-2.51 4.484-3.688 9.075-4.85-.487 3.418.55 6.208 2.537 7.892 1.882 1.593 4.265 2.28 6.661 2.639-.894-1.257-.61-2.89.355-3.892-1.906-.335-3.552-.907-4.504-1.713-1.2-1.017-1.814-2.27-.982-5.459a1.944 1.944 0 0 0-.249-1.578l-5.988-8.875a1.944 1.944 0 0 0-.137-.204c-2.09-2.744-5.607-3.825-9.277-3.84zm41.297 18.14c-.954.01-1.916.29-2.76.87a4.945 4.945 0 0 0-1.274 6.885c1.557 2.264 4.635 2.85 6.899 1.294 2.25-1.547 2.818-4.64 1.26-6.904a4.949 4.949 0 0 0-4.125-2.145zm-18.108 3.716c-1.561.055-2.423 1.837-1.497 3.095 1.584 2.218 3.348 4.388 5.779 5.792 2.43 1.404 5.548 1.855 9.04.769 1.686 4.372 3.494 8.541 4.993 11.905l-5.86.627a2.776 2.776 0 0 0-2.526 2.158l-2.503 11.055a2.777 2.777 0 1 0 5.417 1.225l2.043-9.032 3.79-.492h4.542l.205 8.82a2.777 2.777 0 0 0 2.65 2.708l10.357.47a2.776 2.776 0 1 0 .252-5.547l-7.767-.352-.195-8.307c0-3.69-2.436-7.98-4.085-10.993 1.053.736 1.877 1.592 2.589 2.54 1.45 1.933 2.382 4.329 3.399 6.83a1.944 1.944 0 1 0 3.601-1.463c-.993-2.443-2.012-5.196-3.89-7.7-4.989-5.553-9.575-7.623-16.594-8.002-2.601.068-4.646 1.024-7.515-.586-1.598-.922-3.09-2.626-4.56-4.684a1.942 1.942 0 0 0-1.665-.836zM5.253 63.03v18h53.004v-9c0-4.986-4.015-9-9.001-9z" fill="#fe0606"/></svg>