<svg id="Capa_1" data-name="Capa 1" xmlns="http://www.w3.org/2000/svg" viewBox="0 0 121.79 114.35"><defs><style>.cls-1{fill:#fff}.cls-2{fill:#32a4dd}.cls-3{fill:#9a9aaf}.cls-4{fill:#35b18d}.cls-6{fill:#e94540}</style></defs><rect class="cls-1" x="1.73" width="106.44" height="24.69" rx="1.7" ry="1.7"/><path class="cls-2" d="M1.74.02h22.55V24.7H1.74z"/><path class="cls-3" d="M45 29.65h.73l-1.59 4.24h-.81l-1.6-4.24h.75l1.25 3.53zM47.77 33.94a1.74 1.74 0 0 1 0-3.47 1.57 1.57 0 0 1 1.64 1.66v.34h-2.59a.92.92 0 0 0 1 .89.83.83 0 0 0 .8-.47h.75a1.53 1.53 0 0 1-1.6 1.05zm-1-2h1.86a.87.87 0 0 0-.94-.85.92.92 0 0 0-.87.82zM52.48 32c0-.62-.34-.93-.84-.93s-.85.31-.85.93v1.88h-.7v-3.35h.7v.38a1.29 1.29 0 0 1 1-.44 1.31 1.31 0 0 1 1.38 1.44v2h-.69zM54.16 31.09h-.4v-.56h.4v-.84h.7v.84h.82v.56h-.82V33c0 .25.1.35.39.35h.43v.58h-.55c-.6 0-1-.25-1-.93zM57.67 30.47a1.43 1.43 0 0 1 1.17.55v-.49h.7v3.36h-.7v-.5a1.44 1.44 0 0 1-1.18.55 1.62 1.62 0 0 1-1.57-1.75 1.6 1.6 0 0 1 1.58-1.72zm.15.61a1 1 0 0 0-1 1.11 1.06 1.06 0 0 0 1 1.15 1.14 1.14 0 0 0 0-2.26zM61.67 33.94a1.26 1.26 0 0 1-1.4-1.08H61a.62.62 0 0 0 .67.5c.41 0 .62-.17.62-.4 0-.66-2-.28-2-1.52 0-.53.5-1 1.29-1a1.16 1.16 0 0 1 1.3 1.08h-.7a.55.55 0 0 0-.62-.49c-.38 0-.57.15-.57.38 0 .67 1.9.3 1.93 1.51.08.6-.45 1.02-1.25 1.02zM66.66 30.47a1.55 1.55 0 0 1 1.16.53v-1.63h.7v4.52h-.7v-.51a1.4 1.4 0 0 1-1.17.56 1.63 1.63 0 0 1-1.59-1.75 1.61 1.61 0 0 1 1.6-1.72zm.14.61a1 1 0 0 0-1 1.11 1.06 1.06 0 0 0 1 1.15 1.14 1.14 0 0 0 0-2.26zM70.88 33.94a1.74 1.74 0 0 1 0-3.47 1.57 1.57 0 0 1 1.63 1.66 2 2 0 0 1 0 .34h-2.59a.93.93 0 0 0 1 .89.81.81 0 0 0 .79-.47h.75a1.53 1.53 0 0 1-1.58 1.05zm-.95-2h1.86a.87.87 0 0 0-.94-.85.91.91 0 0 0-.92.82zM73.2 29.37h.69v4.52h-.69zM76.39 29.65h.75L78.63 33l1.49-3.32h.74v4.24h-.7V31l-1.29 2.9h-.48l-1.3-2.9v2.9h-.7zM83.22 33.94a1.74 1.74 0 0 1 0-3.47 1.57 1.57 0 0 1 1.63 1.66 2 2 0 0 1 0 .34h-2.59a.93.93 0 0 0 1 .89.81.81 0 0 0 .79-.47h.75a1.53 1.53 0 0 1-1.58 1.05zm-1-2h1.86a.87.87 0 0 0-.94-.85.91.91 0 0 0-.87.82zM86.76 33.94a1.27 1.27 0 0 1-1.41-1.08h.72a.62.62 0 0 0 .67.5c.41 0 .62-.17.62-.4 0-.66-2-.28-2-1.52 0-.53.5-1 1.29-1A1.16 1.16 0 0 1 88 31.55h-.7a.55.55 0 0 0-.62-.49c-.38 0-.57.15-.57.38 0 .67 1.9.3 1.93 1.51-.04.57-.49.99-1.28.99z" transform="translate(-9.71 -13.49)"/><path class="cls-2" d="M48.63 23.86c-.91-.08-1.57-.58-1.57-1.43H48a.75.75 0 0 0 .66.73v-1.65c-.75-.19-1.57-.4-1.57-1.45a1.54 1.54 0 0 1 1.57-1.5v-.62h.49v.61a1.48 1.48 0 0 1 1.51 1.39h-.91a.76.76 0 0 0-.6-.66v1.62c.75.17 1.57.38 1.57 1.43a1.58 1.58 0 0 1-1.57 1.52v.62h-.49zm0-3.09v-1.52a.73.73 0 0 0-.7.76c0 .44.3.63.7.76zm.49.87v1.52a.78.78 0 0 0 .7-.78c0-.38-.3-.62-.7-.74zM52.07 19.73c0-.79.59-1.47 1.8-1.47s1.79.69 1.79 1.47a1.32 1.32 0 0 1-.78 1.27 1.39 1.39 0 0 1 .93 1.35 2 2 0 0 1-3.88 0 1.38 1.38 0 0 1 .92-1.35 1.29 1.29 0 0 1-.78-1.27zm.68 2.55c0 .56.42 1 1.12 1a1 1 0 0 0 1.1-1c0-.61-.46-.94-1.1-.94s-1.12.3-1.12.94zm2.1-2.44c0-.56-.39-.87-1-.87s-1 .3-1 .88a1 1 0 0 0 2 0zM56.82 22.79h.93l-.91 2.07h-.55zM59.45 22.33a.9.9 0 0 0 1 .77c.68 0 1-.46 1-1.85a1.47 1.47 0 0 1-1.21.53A1.63 1.63 0 0 1 58.51 20a1.68 1.68 0 0 1 1.82-1.8c1.4 0 1.88 1 1.88 2.76s-.39 2.82-1.82 2.82a1.57 1.57 0 0 1-1.73-1.48zM61.37 20a1 1 0 1 0-1 1 .93.93 0 0 0 1-1zM65.75 22.68H63V22l2.52-3.61h1v3.52h.7v.74h-.7v1.14h-.83zm0-.74v-2.65L64 21.94zM69.76 18.23c1.08 0 1.68.63 1.68 1.42a1.29 1.29 0 0 1-.84 1.24 1.32 1.32 0 0 1 .93 1.4 1.54 1.54 0 0 1-1.75 1.53 1.69 1.69 0 0 1-1.89-1.61h.83a1 1 0 0 0 1 .9.85.85 0 0 0 1-.9c0-.72-.46-1-1.35-1h-.2v-.7h.21c.77 0 1.24-.24 1.24-.82s-.31-.79-.89-.79a.85.85 0 0 0-.93.74H68a1.6 1.6 0 0 1 1.76-1.41zM72.89 23.87a.55.55 0 1 1 0-1.09.55.55 0 0 1 0 1.09zM74.17 23.12c1.28-1.12 2.64-2.12 2.64-3.19 0-.57-.25-1-.88-1a.94.94 0 0 0-1 1h-.82a1.66 1.66 0 0 1 1.76-1.76 1.57 1.57 0 0 1 1.74 1.65c0 1.33-1.35 2.34-2.23 3.14h2.38v.71h-3.59zM78.48 23.12c1.29-1.12 2.65-2.12 2.65-3.19 0-.57-.25-1-.89-1a.93.93 0 0 0-.94 1h-.82a1.66 1.66 0 0 1 1.76-1.76A1.57 1.57 0 0 1 82 19.89c0 1.33-1.35 2.34-2.23 3.14h2.38v.71h-3.67z" transform="translate(-9.71 -13.49)"/><path class="cls-1" d="M14.76 17.44H4.55V9.29H19.8v2.29h-.87v-1.42H5.42v6.42h9.34v.86z"/><path class="cls-1" d="M17.28 10.06L6.61 6.56l-.67 2.05-.82-.27.94-2.87 11.49 3.77-.27.82z"/><path class="cls-1" d="M15.99 9.66l-5.44-4.32-1.2 1.12-.59-.63 1.74-1.62 6.02 4.77-.53.68z"/><path class="cls-1" d="M22.15 29.73A2.85 2.85 0 1 1 25 26.89a2.84 2.84 0 0 1-2.85 2.84zm0-4.82a2 2 0 1 0 2 2 2 2 0 0 0-2-2z" transform="translate(-9.71 -13.49)"/><path class="cls-1" d="M19.13 29.67a2.85 2.85 0 0 1-2.8-3.35A2.86 2.86 0 0 1 18.67 24a2.83 2.83 0 0 1 2.16.54l.46.34-.46.35a2 2 0 0 0 0 3.16l.46.35-.46.34a2.75 2.75 0 0 1-1.7.59zm0-4.83a1.84 1.84 0 0 0-.33 0 2 2 0 0 0-1.62 1.6 2 2 0 0 0 .43 1.63 2 2 0 0 0 2.25.56 2.79 2.79 0 0 1-.68-1.84 2.83 2.83 0 0 1 .67-1.79 2 2 0 0 0-.72-.16zM28.86 26.8c-.57 0-3.39-.05-3.39-1s2.82-1 3.39-1 3.39.05 3.39 1-2.83 1-3.39 1zm-2.66-1a6.61 6.61 0 0 0 2.66.39 6.61 6.61 0 0 0 2.66-.39 6.88 6.88 0 0 0-2.66-.38 6.88 6.88 0 0 0-2.66.34z" transform="translate(-9.71 -13.49)"/><path class="cls-1" d="M28.83 27.6c-3.38 0-3.38-.51-3.38-.73s0-.72 3.38-.72 3.39.51 3.39.72 0 .73-3.39.73zm-1.75-.73a19.29 19.29 0 0 0 3.51 0c-.45 0-1-.07-1.76-.07s-1.3.03-1.75.07z" transform="translate(-9.71 -13.49)"/><path class="cls-1" d="M28.81 28.3c-3.39 0-3.39-.51-3.39-.73s0-.72 3.39-.72 3.39.51 3.39.72 0 .73-3.39.73zm-1.76-.73a19.4 19.4 0 0 0 3.52 0c-.45 0-1-.07-1.76-.07s-1.31.03-1.76.07z" transform="translate(-9.71 -13.49)"/><path class="cls-1" d="M28.88 29.24c-3.39 0-3.39-.55-3.39-.75s0-.75 3.39-.75 3.39.55 3.39.75 0 .75-3.39.75zm-1.94-.75a16.11 16.11 0 0 0 1.94.1 15.87 15.87 0 0 0 1.94-.1 15.87 15.87 0 0 0-1.94-.1 16.11 16.11 0 0 0-1.94.1z" transform="translate(-9.71 -13.49)"/><path class="cls-1" d="M28.86 30c-3.39 0-3.39-.53-3.39-.73s0-.74 3.39-.74 3.39.54 3.39.74 0 .73-3.39.73zM27 29.3a18.13 18.13 0 0 0 1.86.08 17.78 17.78 0 0 0 1.85-.08 17.33 17.33 0 0 0-1.85-.09 17.69 17.69 0 0 0-1.86.09z" transform="translate(-9.71 -13.49)"/><path class="cls-1" d="M28.83 30.85c-3.38 0-3.38-.53-3.38-.73s0-.74 3.38-.74 3.39.54 3.39.74 0 .73-3.39.73zM27 30.12a18.06 18.06 0 0 0 1.85.08 18.13 18.13 0 0 0 1.86-.08 19.16 19.16 0 0 0-3.71 0z" transform="translate(-9.71 -13.49)"/><path class="cls-1" d="M28.83 31.67c-3.38 0-3.38-.53-3.38-.73s0-.74 3.38-.74 3.39.54 3.39.74 0 .73-3.39.73zM27 30.94a19.16 19.16 0 0 0 3.71 0 19.16 19.16 0 0 0-3.71 0z" transform="translate(-9.71 -13.49)"/><path class="cls-1" d="M28.86 32.52c-3.39 0-3.39-.54-3.39-.74s0-.73 3.39-.73 3.39.53 3.39.73 0 .74-3.39.74zM27 31.78a17.69 17.69 0 0 0 1.86.09 17.33 17.33 0 0 0 1.85-.09 17.78 17.78 0 0 0-1.85-.08 18.13 18.13 0 0 0-1.86.08z" transform="translate(-9.71 -13.49)"/><path class="cls-1" d="M28.86 33.44c-3.39 0-3.39-.54-3.39-.74s0-.73 3.39-.73 3.39.53 3.39.73 0 .74-3.39.74zM27 32.7a17.69 17.69 0 0 0 1.86.09 17.33 17.33 0 0 0 1.85-.09 17.33 17.33 0 0 0-1.85-.09 17.69 17.69 0 0 0-1.86.09z" transform="translate(-9.71 -13.49)"/><path class="cls-1" d="M14.49 10.89h2.67v.65h-2.67z"/><path class="cls-1" d="M22.11 28.34V28a1.1 1.1 0 0 1-.51-.15l.08-.23a.88.88 0 0 0 .48.15c.25 0 .41-.14.41-.34s-.13-.3-.38-.4-.57-.3-.57-.6a.55.55 0 0 1 .51-.54v-.34h.22v.33a.83.83 0 0 1 .44.12l-.08.22a.89.89 0 0 0-.43-.12c-.27 0-.36.16-.36.3s.12.26.42.39.53.31.53.61a.6.6 0 0 1-.54.59v.35z" transform="translate(-9.71 -13.49)"/><rect class="cls-1" x="15.35" y="44.74" width="106.44" height="24.64" rx="3.14" ry="3.14"/><path class="cls-4" d="M15.34 44.74h22.55v24.68H15.34z"/><path class="cls-4" d="M81.42 63.31v.75h-2.51v1.49a1.45 1.45 0 0 1 1.13-.5 1.66 1.66 0 0 1 1.75 1.82 1.92 1.92 0 0 1-3.79.44h.83A1.1 1.1 0 0 0 81 66.9a1.06 1.06 0 0 0-2-.44h-.81v-3.15z" transform="translate(-9.71 -13.49)"/><path class="cls-3" d="M59.35 74.38v4.25h-.7l-2.09-3.17v3.17h-.7v-4.25h.7l2.09 3.16v-3.16zM63.31 78.63h-.7v-.41a1.24 1.24 0 0 1-1 .45 1.31 1.31 0 0 1-1.39-1.43v-2h.69v1.88a.85.85 0 1 0 1.69 0v-1.86h.7zM65.67 78.68A1.63 1.63 0 0 1 64 76.94a1.61 1.61 0 0 1 1.68-1.73 1.56 1.56 0 0 1 1.63 1.65 1.88 1.88 0 0 1 0 .34h-2.6a.93.93 0 0 0 1 .9.82.82 0 0 0 .79-.47h.75a1.54 1.54 0 0 1-1.58 1.05zm-1-2h1.87a.88.88 0 0 0-.94-.85.93.93 0 0 0-.89.81zM68.33 75.26l1 2.74 1-2.74H71l-1.28 3.37h-.83l-1.27-3.37zM73 78.68a1.64 1.64 0 0 1-1.69-1.74 1.72 1.72 0 1 1 3.43 0A1.68 1.68 0 0 1 73 78.68zm0-.6a1 1 0 0 0 1-1.14 1 1 0 0 0-1-1.13 1.15 1.15 0 0 0 0 2.27zM76.61 78.68a1.26 1.26 0 0 1-1.4-1.09h.71a.63.63 0 0 0 .68.51c.4 0 .61-.18.61-.41 0-.66-1.95-.28-1.95-1.51 0-.54.5-1 1.29-1a1.15 1.15 0 0 1 1.3 1.08h-.69a.57.57 0 0 0-.63-.5c-.37 0-.57.16-.57.38 0 .68 1.9.3 1.94 1.52 0 .59-.5 1.02-1.29 1.02zM82.17 74.33a2 2 0 0 1 2 1.28h-.87a1.17 1.17 0 0 0-1.13-.67 1.56 1.56 0 0 0 0 3.12 1.18 1.18 0 0 0 1.13-.67h.84a2 2 0 0 1-2 1.27 2.17 2.17 0 1 1 0-4.33zM85 74.11h.69v4.52H85zM86.46 74.37a.45.45 0 0 1 .89 0 .45.45 0 1 1-.89 0zm.1.89h.69v3.37h-.69zM89.61 78.68a1.63 1.63 0 0 1-1.68-1.74 1.61 1.61 0 0 1 1.68-1.73 1.57 1.57 0 0 1 1.64 1.65 1.87 1.87 0 0 1 0 .34h-2.6a.93.93 0 0 0 1 .9.83.83 0 0 0 .8-.47h.75a1.54 1.54 0 0 1-1.59 1.05zm-1-2h1.86a.87.87 0 0 0-.94-.85.91.91 0 0 0-.87.81zM94.32 76.75a.82.82 0 0 0-.85-.94c-.51 0-.84.32-.84.94v1.88h-.7v-3.37h.7v.39a1.26 1.26 0 0 1 1-.44A1.31 1.31 0 0 1 95 76.64v2h-.69zM96 75.83h-.4v-.57h.4v-.83h.7v.83h.82v.57h-.82v1.86c0 .25.1.36.39.36h.43v.58H97c-.6 0-1-.25-1-.94zM99.6 78.68a1.63 1.63 0 0 1-1.68-1.74 1.61 1.61 0 0 1 1.68-1.73 1.57 1.57 0 0 1 1.64 1.65 1.87 1.87 0 0 1 0 .34h-2.59a.92.92 0 0 0 .95.9.83.83 0 0 0 .8-.47h.75a1.54 1.54 0 0 1-1.55 1.05zm-.95-2h1.86a.87.87 0 0 0-.94-.85.91.91 0 0 0-.92.81zM103.14 78.68a1.27 1.27 0 0 1-1.4-1.09h.72a.61.61 0 0 0 .67.51c.4 0 .62-.18.62-.41 0-.66-2-.28-2-1.51 0-.54.5-1 1.3-1a1.16 1.16 0 0 1 1.3 1.08h-.7a.56.56 0 0 0-.63-.5c-.37 0-.57.16-.57.38 0 .68 1.9.3 1.94 1.52.04.59-.46 1.02-1.25 1.02z" transform="translate(-9.71 -13.49)"/><path class="cls-1" d="M37.26 79.56h-2.8a5.84 5.84 0 0 1-5.84-5.83V67.5a5.84 5.84 0 0 1 5.84-5.83h2.8a5.84 5.84 0 0 1 5.83 5.83v6.23a5.83 5.83 0 0 1-5.83 5.83zM34.46 63a4.55 4.55 0 0 0-4.54 4.54v6.23a4.55 4.55 0 0 0 4.54 4.54h2.8a4.55 4.55 0 0 0 4.54-4.54V67.5a4.55 4.55 0 0 0-4.54-4.5z" transform="translate(-9.71 -13.49)"/><path class="cls-1" d="M36.07 71.14a2.72 2.72 0 1 1 2.72-2.72 2.72 2.72 0 0 1-2.72 2.72zm0-4.58a1.86 1.86 0 1 0 1.86 1.86 1.86 1.86 0 0 0-1.86-1.86zM39.62 75.88l-.69-.52a1.78 1.78 0 0 0-.11-1.74 3.19 3.19 0 0 0-2.16-1 4.11 4.11 0 0 0-3 .72 2.17 2.17 0 0 0-.66 2.2l-.84.19a3 3 0 0 1 .91-3 4.94 4.94 0 0 1 3.66-.92 4 4 0 0 1 2.76 1.29 2.62 2.62 0 0 1 .13 2.78z" transform="translate(-9.71 -13.49)"/><path class="cls-1" d="M32.64 51.43h2.12v2.46h-2.12zM32.64 55.72h2.12v2.46h-2.12zM32.64 60.06h2.12v2.46h-2.12z"/><rect class="cls-1" y="89.66" width="106.44" height="24.69" rx="2.69" ry="2.69"/><path fill="#f29479" d="M0 89.66h22.55v24.68H0z"/><path class="cls-3" d="M40.46 119H43v.57h-1.8v1.25h1.4v.57h-1.4v1.85h-.7zM45 119.81a1.42 1.42 0 0 1 1.16.54v-.49h.7v3.36h-.7v-.5a1.44 1.44 0 0 1-1.18.56 1.63 1.63 0 0 1-1.57-1.75 1.6 1.6 0 0 1 1.59-1.72zm.14.6a1 1 0 0 0-1 1.12 1.06 1.06 0 0 0 1 1.14 1.14 1.14 0 0 0 0-2.26zM49.15 119.81a1.45 1.45 0 0 1 1.55 1.11H50a.78.78 0 0 0-.8-.53c-.56 0-.93.42-.93 1.15s.37 1.15.93 1.15a.76.76 0 0 0 .8-.53h.75a1.51 1.51 0 0 1-1.55 1.12 1.74 1.74 0 0 1 0-3.47zM51.51 120.43h-.4v-.57h.4V119h.7v.84H53v.57h-.82v1.86c0 .25.1.35.39.35H53v.58h-.55c-.6 0-1-.25-1-.93zM56.71 123.22H56v-.4a1.25 1.25 0 0 1-1 .45 1.31 1.31 0 0 1-1.39-1.43v-2h.69v1.87a.85.85 0 1 0 1.7 0v-1.87h.69zM58.32 123.22h-.7v-3.36h.7v.49a1.08 1.08 0 0 1 1-.54v.72h-.18c-.51 0-.83.21-.83.92zM61.32 119.81a1.42 1.42 0 0 1 1.17.54v-.49h.7v3.36h-.7v-.5a1.46 1.46 0 0 1-1.18.56 1.63 1.63 0 0 1-1.58-1.75 1.6 1.6 0 0 1 1.59-1.72zm.15.6a1 1 0 0 0-1 1.12 1.06 1.06 0 0 0 1 1.14 1.14 1.14 0 0 0 0-2.26zM65.46 119.81a1.53 1.53 0 0 1 1.16.52v-1.62h.7v4.51h-.7v-.5a1.39 1.39 0 0 1-1.16.56 1.63 1.63 0 0 1-1.59-1.75 1.6 1.6 0 0 1 1.59-1.72zm.14.6a1 1 0 0 0-1 1.12 1.06 1.06 0 0 0 1 1.14 1.14 1.14 0 0 0 0-2.26zM69.7 123.28a1.74 1.74 0 1 1 1.74-1.74 1.69 1.69 0 0 1-1.74 1.74zm0-.61a1 1 0 0 0 1-1.13 1 1 0 0 0-1-1.13 1 1 0 0 0-1 1.13 1 1 0 0 0 1 1.13zM76.41 121.37h-2v1.85h-.7V119h.7v1.82h2V119h.69v4.24h-.69zM79.47 123.28a1.74 1.74 0 0 1 0-3.47 1.66 1.66 0 0 1 1.72 1.73 1.69 1.69 0 0 1-1.72 1.74zm0-.61a1 1 0 0 0 1-1.13 1 1 0 0 0-1-1.13 1 1 0 0 0-1 1.13c.03.76.53 1.13 1 1.13zM84.21 119.86h.72l-2.06 4.94h-.72l.68-1.63-1.32-3.31h.77l1 2.56z" transform="translate(-9.71 -13.49)"/><path class="cls-6" d="M46.44 113.06c-.91-.09-1.57-.59-1.57-1.44h.92a.73.73 0 0 0 .65.73v-1.65c-.75-.18-1.57-.39-1.57-1.45a1.55 1.55 0 0 1 1.57-1.5v-.61h.49v.6a1.48 1.48 0 0 1 1.51 1.4h-.91a.77.77 0 0 0-.6-.67v1.62c.75.18 1.57.38 1.57 1.44a1.58 1.58 0 0 1-1.57 1.52v.61h-.49zm0-3.1v-1.51a.72.72 0 0 0-.7.75c0 .44.26.63.7.8zm.49.87v1.52a.78.78 0 0 0 .71-.78c0-.42-.3-.57-.71-.74zM49.88 108.93c0-.8.59-1.48 1.8-1.48s1.8.69 1.8 1.48a1.36 1.36 0 0 1-.78 1.23 1.38 1.38 0 0 1 .92 1.34 2 2 0 0 1-3.88 0 1.38 1.38 0 0 1 .92-1.34 1.31 1.31 0 0 1-.78-1.23zm.68 2.54c0 .56.42 1 1.12 1a1 1 0 0 0 1.1-1c0-.61-.46-.94-1.1-.94s-1.12.31-1.12.94zm2.1-2.44c0-.56-.38-.87-1-.87s-1 .3-1 .88a1 1 0 0 0 2 0zM54.63 112h.93l-.91 2.07h-.55zM57.26 111.53a.9.9 0 0 0 1 .76c.68 0 1-.46 1-1.85a1.51 1.51 0 0 1-1.22.53 1.63 1.63 0 0 1-1.74-1.74 1.68 1.68 0 0 1 1.82-1.81c1.41 0 1.88 1 1.88 2.76s-.37 2.82-1.8 2.82a1.57 1.57 0 0 1-1.73-1.47zm1.92-2.3a1 1 0 1 0-1 1 .93.93 0 0 0 1-1zM63.56 111.87h-2.71v-.64l2.51-3.61h1v3.51h.69v.74h-.65V113h-.84zm0-.74v-2.64l-1.76 2.64zM67.57 107.42c1.09 0 1.68.63 1.68 1.42a1.28 1.28 0 0 1-.84 1.24 1.33 1.33 0 0 1 .93 1.4 1.54 1.54 0 0 1-1.75 1.52 1.69 1.69 0 0 1-1.89-1.61h.83a1 1 0 0 0 1 .9.86.86 0 0 0 1-.9c0-.72-.47-1-1.36-1H67v-.7h.21c.77 0 1.24-.23 1.24-.82s-.31-.78-.89-.78a.85.85 0 0 0-.93.74h-.83a1.6 1.6 0 0 1 1.77-1.41zM70.7 113.06a.55.55 0 1 1 .54-.54.54.54 0 0 1-.54.54zM72 112.31c1.29-1.13 2.64-2.12 2.64-3.19 0-.57-.25-1-.88-1s-.92.42-.95 1H72a1.65 1.65 0 0 1 1.76-1.76A1.57 1.57 0 0 1 75.5 109c0 1.33-1.35 2.34-2.23 3.14h2.38v.72H72zM76.3 112.31c1.28-1.13 2.64-2.12 2.64-3.19 0-.57-.25-1-.88-1s-.93.42-1 1h-.82a1.65 1.65 0 0 1 1.76-1.76 1.57 1.57 0 0 1 1.74 1.64c0 1.33-1.35 2.34-2.23 3.14h2.38v.72H76.3z" transform="translate(-9.71 -13.49)"/><path class="cls-1" d="M21.35 124.59a7.89 7.89 0 1 1 8.08-7.88 8 8 0 0 1-8.08 7.88zm0-14.47a6.59 6.59 0 1 0 6.78 6.59 6.69 6.69 0 0 0-6.78-6.59z" transform="translate(-9.71 -13.49)"/><path class="cls-1" d="M14.5 113.08A4 4 0 0 1 15 108a3.76 3.76 0 0 1 3-.9 4.24 4.24 0 0 1 3 1.79l-1.07.74a2.94 2.94 0 0 0-2.06-1.24 2.44 2.44 0 0 0-1.93.55 2.75 2.75 0 0 0-.3 3.45zM28.25 113.07l-1.15-.61a2.9 2.9 0 0 0 .16-2.41 2.48 2.48 0 0 0-1.37-1.46 2.74 2.74 0 0 0-3.2 1.31l-1.12-.66a4 4 0 0 1 4.79-1.86 3.75 3.75 0 0 1 2.12 2.22 4.25 4.25 0 0 1-.23 3.47z" transform="translate(-9.71 -13.49)"/><path class="cls-1" d="M13.4 106.12l-2.57-2.19v-5h1.29v4.4l2.12 1.8-.84.99z"/><path class="cls-1" transform="rotate(-45 -5.27 127.953)" d="M14.63 122.33h2.5v1.3h-2.5z"/><path class="cls-1" transform="rotate(-42.09 4.219 128.97)" d="M25.96 121.84h1.3v2.5h-1.3z"/></svg>