<svg version="1.1" id="Capa_1" xmlns="http://www.w3.org/2000/svg" xmlns:xlink="http://www.w3.org/1999/xlink" x="0" y="0" viewBox="0 0 2012.4 1685.7" xml:space="preserve"><style>.st0{fill:#85c0e7}.st1{fill:#fff}.st2{fill:none}</style><path class="st0" d="M4667.1 1519.3c-12-2.6-24.3-4-36.7-4-12.4 0-24.8 1.4-36.7 4 1.6 6.3 3.3 12.2 5.2 17.9 11.1 33.3 23.9 45.1 31.5 45.1 7.6 0 20.4-11.8 31.5-45.1 1.9-5.6 3.6-11.6 5.2-17.9zm0 0M4588.6 1495.9c13.6-3 27.6-4.6 41.8-4.6 14.1 0 28.1 1.6 41.8 4.6 3.9-21.9 6.2-46.2 6.8-71.6h-97.1c.5 25.4 2.8 49.7 6.7 71.6zm0 0M4593.7 1305.3c12 2.6 24.3 4 36.7 4 10.3 0 20.5-.9 30.6-2.8-.2-2.1-.3-4.2-.3-6.4 0-4.5.4-8.9 1.1-13.1-11-32.9-23.7-44.7-31.4-44.7-7.6 0-20.4 11.8-31.5 45.1-1.9 5.7-3.7 11.7-5.2 17.9zm0 0M4686.2 1313.2l.5 2.2c2 7.4 5.5 14.4 10.4 20.7l45.4 57.1 45.4-57.1c8.1-10.3 12.4-22.7 12.4-35.8 0-31.9-26-57.8-57.8-57.8-31.9 0-57.8 25.9-57.8 57.8 0 4.3.5 8.6 1.5 12.9zm56.3-29c8.8 0 16 7.2 16 16s-7.2 16-16 16-16-7.2-16-16 7.2-16 16-16zm0 0M4717.7 1400.3l-15.5-19.5c.4 6.4.6 12.9.8 19.5h14.7zm0 0M4687.7 1239.5c-9.1-3-18.4-5.3-28.1-6.9 5 5.4 10 12.6 14.9 22.2 3.7-5.6 8.2-10.7 13.2-15.3zm0 0M4666.3 1330c-11.8 2.2-23.8 3.3-35.9 3.3-14.2 0-28.1-1.6-41.8-4.6-3.9 21.9-6.2 46.2-6.8 71.6h97c-.4-18.8-1.8-37-4.1-54.3-3.4-5.1-6.2-10.4-8.4-16zm0 0M4695.3 1502.5c23.1 8.2 44.7 20.8 63.4 37.3l.8.7c30-30.2 49.5-71 52.5-116.2h-109.1c-.6 27.7-3.2 54.3-7.6 78.2zm0 0M4684.7 1544.8c-7.7 23.1-16.4 37.9-25.1 47.2 30.5-4.9 58.4-17.4 81.8-35.4-15.3-13.2-32.6-23.4-51.2-30.4-1.8 6.5-3.6 12.7-5.5 18.6zm0 0M4812 1400.3c-1-15.6-4-30.7-8.7-45l-35.8 45h44.5zm0 0M4565.5 1322.1c-23.1-8.2-44.7-20.8-63.4-37.3l-.8-.7c-30 30.2-49.5 71-52.5 116.2h109.1c.5-27.7 3.1-54.2 7.6-78.2zm0 0M4576.1 1279.8c7.7-23.1 16.4-37.9 25.1-47.2-30.5 4.9-58.4 17.4-81.8 35.4 15.3 13.2 32.6 23.4 51.2 30.4 1.7-6.4 3.5-12.7 5.5-18.6zm0 0M4557.8 1424.3h-109.1c2.9 45.3 22.4 86 52.5 116.2l.8-.7c18.7-16.5 40.3-29.1 63.4-37.3-4.4-23.9-7-50.5-7.6-78.2zm0 0M4570.6 1526.2c-18.6 7-36 17.2-51.2 30.4 23.4 18 51.3 30.5 81.8 35.4-8.7-9.3-17.4-24.1-25.1-47.2-2-5.9-3.8-12.1-5.5-18.6zm0 0"/><path d="M414.7 2189.1c-96.4 0-181.7 48.1-233.4 121.6 10.7 7 21.1 16.5 31.2 28.8 38.5-57.6 100.8-98 172.9-106.7l29.3 49.5 29.3-49.5c110.8 13.4 198.9 101.4 212.2 212.2l-49.6 29.3 49.6 29.3c-8.9 74.1-51.4 137.9-111.5 176.1 3.8 8.7 6 17.7 6.4 26.9.3 6.7-.4 13.1-1.8 19.1C638.9 2677.6 700 2583 700 2474.3c-.1-157.3-128-285.2-285.3-285.2z"/><g><path class="st0" d="M4815.8 592.8c0-60.1 77.9-69.7 77.9-102.8 0-14.5-11.3-23.2-25.3-23.2-19.5 0-30 19.7-30 19.7l-22.5-15s15.2-33.3 55.1-33.3c29.3 0 54.2 17.8 54.2 49.3 0 53.5-74.6 62.6-75.3 94.1h77.9v26h-110.5c-.8-5.4-1.5-10.1-1.5-14.8zM4944.7 546.1l71.7-105.1h35.9v98.5h21.6v25.1h-21.6v43h-29.8v-43h-77.8z"/><path class="st1" d="M5022.5 539.5v-51.6c0-8.2 1.2-17.4 1.2-17.4h-.5s-3.7 8.9-8.2 15.2l-38.5 53.3v.5h46z"/><path class="st0" d="M4855.8 800.6l19.1-50.3c2.1-5.6-.7-11.8-6.3-13.9l-20.2-7.6c-114.6-43.4-178-169.8-137.9-285.6 38.5-111.2 155.1-172 265.9-144.9l-12.7 33.4c-2.9 7.7 3.6 15.8 11.8 14.4l148.5-24.2c8.2-1.3 11.8-11 6.6-17.4L5035.4 188c-5.2-6.4-15.5-4.7-18.4 3l-13.8 36.4c-149.4-41.5-309.2 38.6-362.8 188-55.7 155.1 28.1 325.9 182.2 384.3l19.3 7.3c5.6 2 11.8-.8 13.9-6.4zM4940.2 740.5l-16.6.7c-5.9.2-10.6 5.2-10.3 11.2l2.2 54.8c.2 5.9 5.2 10.6 11.2 10.3l16.6-.7c5.9-.2 10.6-5.2 10.3-11.2l-2.2-54.8c-.2-5.9-5.2-10.5-11.2-10.3zM5022.8 717.8l-15.2 6.8c-5.4 2.4-7.8 8.8-5.4 14.2l22.5 50c2.4 5.4 8.8 7.8 14.2 5.4l15.2-6.8c5.4-2.4 7.8-8.8 5.4-14.2l-22.5-50c-2.4-5.5-8.7-7.9-14.2-5.4zM5090.9 665.7l-11.5 12c-4.1 4.3-4 11.1.3 15.2l39.6 37.9c4.3 4.1 11.1 4 15.2-.3l11.5-12c4.1-4.3 4-11.1-.3-15.2l-39.6-37.9c-4.3-4.1-11.1-4-15.2.3zM5134.6 592l-6.2 15.4c-2.2 5.5.5 11.8 6 14l50.9 20.3c5.5 2.2 11.8-.5 14-6l6.2-15.4c2.2-5.5-.5-11.8-6-14l-50.9-20.3c-5.6-2.2-11.8.5-14 6zM5158.1 496.5c-5.9 0-10.7 4.9-10.7 10.8l.1 16.6c0 5.9 4.9 10.7 10.8 10.7l54.8-.3c5.9 0 10.7-4.9 10.7-10.8l-.1-16.6c0-5.9-4.9-10.7-10.8-10.7l-54.8.3zM5133.5 409.9c-5.5 2.3-8.1 8.5-5.9 14l6.3 15.4c2.3 5.5 8.5 8.1 14 5.9l50.7-20.8c5.5-2.3 8.1-8.5 5.9-14l-6.3-15.4c-2.3-5.5-8.5-8.1-14-5.9l-50.7 20.8z"/><path class="st0" d="M5208.8 756.7c-8.4 95.7 60.3 82 106.8 81.1 53.7-1.1 125.8-128.1 121.8-325.8-4-197.8-81.1-321.7-134.8-320.6-46.5.9-115.8-9.9-103.4 85.3 12.3 95.2 47.9 88.4 95.9 87.5 33.5-.7 42.5 76.6 44 149.9 1.5 73.3-4.4 150.9-37.9 151.5-48.2.9-84-4.5-92.4 91.1z"/></g><path d="M287.3 2518.9c0-58.4 68.4-68.8 68.4-91.6 0-11.1-8.9-15.7-17-15.7-15.1 0-23.5 16.8-23.5 16.8l-28.8-19.3s14.6-34.1 55.8-34.1c25.9 0 54 14.8 54 48.5 0 49.4-63.8 58.9-64.9 79.3h67.3v33.2H289c-1.1-6.3-1.7-11.8-1.7-17.1zM414.8 2474.2l61.1-96.6h47.4v87.9h18.8v32.1h-18.8v38.3H485v-38.3h-70.2z"/><path d="M485 2465.5v-35.4c0-8.6 1.3-17.7 1.3-17.7h-.4s-3.3 9.7-7.8 16.4l-23.9 36.3v.4H485z"/><path class="st2" d="M60 2189.1h639.8v600H60z"/><g><path class="st0" d="M943 3398.8l-696.5-217.5c-17.4-5.4-36.2-5.4-53.6 0l-696.5 217.5c-37.6 11.8-63.2 46.5-63.2 85.8 0 963 486.5 1193.1 747.9 1316.7 12.1 5.8 25.3 8.6 38.4 8.6s26.3-2.8 38.6-8.6c261.3-123.6 747.9-353.8 747.9-1316.7.2-39.3-25.4-74.1-63-85.8z"/><path class="st1" d="M219.7 4620.3c-248-119.2-586.9-316.9-605.5-1069.7l605.5-189.1 605.5 189.1c-18.4 752.8-357.2 950.5-605.5 1069.7z"/><path class="st2" d="M-566.7 3177.2H997.4v1662.9H-566.7z"/><path class="st0" d="M-283.5 3625.8c0 222.4 57.8 397.4 136 532.3l612.7-612.7-245.6-76.7-503.1 157.1zm0 0M219.7 4518.5c172-77.3 496-336.2 503.1-874.3L7.6 4359.4c82.5 82.2 163.3 133.5 212.1 159.1zm0 0"/></g><g><defs><path id="SVGID_1_" d="M5112.8 1054.8h822v780.4h-822z"/></defs><clipPath id="SVGID_2_"><use xlink:href="#SVGID_1_" overflow="visible"/></clipPath><path d="M5908.4 1407.2c-24.4-59.4-70.6-89.6-137.4-89.6h-80.1c13.5-30.5 28.6-74.8 28.6-128.2 0-14.7-1.2-29.8-3.9-45.4-10.5-62-52.8-95-113.1-88.4-23.9 2.7-32 25.4-51.8 80.3-16.4 45.6-39 107.9-71.5 158-24.1 36.8-66.7 65.9-102.4 83.9v-4.6h-264v392.1h264v-21.5c41.5-2 65.2-.8 70.8.9l47.1 27.4 35.4 22c34.2 18.5 184.3 20.3 248.6 10.8 82.9-12.2 102.8-79.9 103.7-82.8 6.3-22.6 63.3-224.3 26-314.9zm-76 300.6c-.3 1.3-12.5 38.6-61.1 45.6-69.3 10.3-197.7 4.1-216.6-5.1 0 .2-31.3-19.6-31.3-19.6l-59.4-33.4c-13.7-4.6-44.9-5.1-87.1-3.2v-258.3c42.5-17.3 108.4-54.2 146-111.6 35.9-55.2 59.6-120.7 76.9-168.7 0 0 15.1-37.9 18.8-46.7 26.3.2 40.8 14.6 46.2 45.9 2.2 12.4 3.1 24.5 3.1 36.2 0 77.7-40 139.6-40.7 140.4l-26.2 40.1h170.2c45.4 0 73 17.8 89.4 57.6 25.6 62.5-11.8 223.9-28.2 280.8zm0 0" clip-path="url(#SVGID_2_)" fill="#85c0e7"/></g><g><path class="st0" d="M1732.4 1051.6h-1470c-128.5 0-232.8 104.3-232.8 232.8 0 128.6 104.3 232.8 232.8 232.8h1470c128.6 0 232.8-104.2 232.8-232.8 0-128.5-104.2-232.8-232.8-232.8zm-331.5 285.3c-39.1 0-70.8-31.7-70.8-70.8 0-39.1 31.7-70.8 70.8-70.8 39.1 0 70.8 31.7 70.8 70.8 0 39.1-31.7 70.8-70.8 70.8zm238.6 0c-39.1 0-70.8-31.7-70.8-70.8 0-39.1 31.7-70.8 70.8-70.8 39.1 0 70.8 31.7 70.8 70.8 0 39.1-31.7 70.8-70.8 70.8zm0 0"/><path class="st2" d="M29.6 160.4h1934.7v1357.2H29.6z"/><path class="st0" d="M1732.4 975c75.8 0 145.3 27.4 199.1 72.8L1527.8 174c-3.9-8.4-12.2-13.7-21.4-13.7H488.5c-9.2 0-17.6 5.4-21.4 13.7L63.3 1047.9c53.8-45.4 123.3-72.8 199.1-72.8h1470z"/><path class="st2" d="M29.6 160.4h1934.7v1357.2H29.6z"/><path class="st1" d="M783.6 681.9c0-14.2-5.1-26.1-15.3-35.7-10.2-9.6-28.1-17.8-53.8-24.5-31.9-7.9-56.7-19.5-74.6-34.9C622 571.3 613 552 613 528.7c0-24.5 9.6-45 28.9-61.4 19.2-16.4 44.2-24.5 74.9-24.5 33 0 59.3 9.4 78.9 28.1 19.6 18.7 29.1 40.6 28.5 65.6l-.6 1.3h-40.5c0-17.8-6.2-32.5-18.6-44.1-12.4-11.6-28.3-17.4-47.7-17.4-19.8 0-35 4.8-45.5 14.4-10.6 9.6-15.8 22.1-15.8 37.5 0 13.6 5.8 25 17.3 34.1 11.6 9.1 30.3 17.1 56.3 24 31.6 8.2 55.6 20.2 72.1 36.2 16.5 15.9 24.8 35.6 24.8 59 0 25.3-9.9 45.6-29.8 60.9-19.9 15.4-45.8 23-77.8 23-30.3 0-57-8.5-80.2-25.4-23.2-16.9-34.4-39.6-33.7-68l.4-1.3h40.5c0 19.7 7.5 34.9 22.4 45.5 14.9 10.7 31.8 16 50.6 16 20.1 0 36-4.5 47.7-13.6 11.6-9 17.5-21.2 17.5-36.7zM1053.2 681.9c0-14.2-5.1-26.1-15.3-35.7-10.2-9.6-28.1-17.8-53.8-24.5-31.9-7.9-56.7-19.5-74.6-34.9-17.9-15.4-26.8-34.7-26.8-57.9 0-24.5 9.6-45 28.9-61.4 19.2-16.4 44.2-24.5 74.9-24.5 33 0 59.3 9.4 78.9 28.1 19.6 18.7 29.1 40.6 28.5 65.6l-.6 1.3h-40.5c0-17.8-6.2-32.5-18.6-44.1-12.4-11.6-28.3-17.4-47.7-17.4-19.8 0-35 4.8-45.5 14.4-10.6 9.6-15.8 22.1-15.8 37.5 0 13.6 5.8 25 17.3 34.1 11.6 9.1 30.3 17.1 56.3 24 31.6 8.2 55.6 20.2 72.1 36.2 16.5 15.9 24.8 35.6 24.8 59 0 25.3-9.9 45.6-29.8 60.9-19.9 15.4-45.8 23-77.8 23-30.3 0-57-8.5-80.2-25.4-23.2-16.9-34.4-39.6-33.7-68l.4-1.3h40.5c0 19.7 7.5 34.9 22.4 45.5 14.9 10.7 31.8 16 50.6 16 20.1 0 36-4.5 47.7-13.6 11.5-9.2 17.4-21.4 17.4-36.9zM1155.7 760.9V447.4h98.6c40.9 0 73.8 12.6 98.7 37.8 24.9 25.2 37.4 57.7 37.4 97.7v42.9c0 40.1-12.5 72.6-37.4 97.7-24.9 25.1-57.8 37.6-98.7 37.6h-98.6zm42.4-280.2v247h56.2c29 0 51.9-9.5 68.6-28.6 16.7-19.1 25.1-43.6 25.1-73.4v-43.3c0-29.6-8.4-53.9-25.1-73-16.7-19.1-39.6-28.6-68.6-28.6h-56.2z"/></g><g><circle class="st0" cx="2580.2" cy="2767.8" r="760.5"/><path class="st1" d="M2448 3353.4l37.2-98.2c4.1-10.8-1.4-23-12.2-27.1l-39.4-14.9c-223.7-84.7-347.5-331.5-269.3-557.6 75.1-217.2 302.8-335.9 519.1-282.9l-24.7 65.2c-5.7 15.1 7.1 30.8 23 28.2l290-47.3c16-2.6 23.1-21.5 12.9-34l-185.9-227.5c-10.2-12.5-30.2-9.3-35.9 5.9l-26.9 71c-291.7-81.1-603.6 75.4-708.3 367-108.7 302.8 54.8 636.4 355.7 750.3l37.6 14.3c10.9 3.9 23-1.6 27.1-12.4zM2612.8 3235.9l-32.4 1.3c-11.6.5-20.6 10.2-20.2 21.8l4.2 106.9c.5 11.6 10.2 20.6 21.8 20.2l32.4-1.3c11.6-.5 20.6-10.2 20.2-21.8l-4.2-106.9c-.4-11.6-10.2-20.6-21.8-20.2zM2774.2 3191.6l-29.6 13.3c-10.6 4.8-15.3 17.2-10.5 27.8l44 97.5c4.8 10.6 17.2 15.3 27.8 10.5l29.6-13.3c10.6-4.8 15.3-17.2 10.5-27.8l-44-97.5c-4.8-10.6-17.3-15.3-27.8-10.5zM2907.1 3090l-22.4 23.4c-8 8.4-7.7 21.7.7 29.7l77.3 74c8.4 8 21.7 7.7 29.7-.7l22.4-23.5c8-8.4 7.7-21.7-.7-29.7l-77.3-74c-8.4-7.9-21.7-7.6-29.7.8zM2992.3 2946l-12 30.1c-4.3 10.8 1 23 11.7 27.3l99.4 39.6c10.8 4.3 23-1 27.3-11.7l12-30.1c4.3-10.8-1-23-11.7-27.3l-99.4-39.6c-10.8-4.3-23 .9-27.3 11.7zM3038.3 2759.5c-11.6.1-21 9.5-20.9 21.1l.2 32.4c.1 11.6 9.5 21 21.1 20.9l107-.5c11.6 0 21-9.5 20.9-21.1l-.2-32.5c0-11.6-9.5-21-21.1-20.9l-107 .6zM2990.1 2590.4c-10.7 4.4-15.9 16.7-11.5 27.4l12.3 30c4.4 10.7 16.7 15.9 27.4 11.5l99-40.5c10.7-4.4 15.9-16.7 11.5-27.4l-12.3-30c-4.4-10.7-16.7-15.9-27.4-11.5l-99 40.5z"/><path transform="rotate(-51.089 3166.441 3142.015)" class="st2" d="M2679.1 2592.4h974.8v1099.1h-974.8z"/><path class="st1" d="M2500.2 2524.3h160v486.9h-160z"/><path d="M3479.4 2774.9l-.1.1-9.4-7.6c-37.5-30.3-92.5-24.4-122.8 13.1-30.3 37.5-24.4 92.5 13.1 122.8l-74.8-60.4c-37.5-30.3-92.5-24.4-122.8 13.1-30.3 37.5-24.4 92.5 13.1 122.8l-68-54.9c-37.5-30.3-94.4-22.2-124.7 15.4-30.3 37.5-23.9 96.5 13.7 126.8l-219.9-177.3c-37.5-30.3-92.5-24.4-122.8 13.1-30.3 37.5-24.4 92.5 13.1 122.8l440.7 355.7s-265-99-294.2 39c-10.2 48.2 19.5 95.8 67.6 106.6l358 80.2s216.8 45.9 326.8-90.5l146.3-181.2c101-125.1 80.4-307.1-44.7-408.1l-188.2-151.5zm0 0" fill="#85c0e7" stroke="#fff" stroke-width="21" stroke-linejoin="bevel" stroke-miterlimit="10"/></g></svg>